<svg width="1811" height="1027" viewBox="0 0 1811 1027" fill="none" xmlns="http://www.w3.org/2000/svg">
<g filter="url(#filter0_di_17_13)">
<rect x="4" width="853" height="456" rx="110" fill="#EBFB31"/>
</g>
<ellipse cx="219" cy="231.5" rx="152" ry="144.5" fill="black"/>
<path d="M277.702 262.623C275.273 260.233 245.85 248.851 240.511 246.704C235.2 244.595 233.081 238.75 233.081 238.75C233.081 238.75 230.691 240.072 230.691 236.359C230.691 232.642 233.081 238.75 235.472 224.415C235.472 224.415 242.105 222.554 240.788 207.165H239.194C239.194 207.165 243.178 190.712 239.194 185.144C235.195 179.575 233.63 175.862 224.85 173.2C216.084 170.542 219.272 171.072 212.906 171.344C206.531 171.611 201.225 175.061 201.225 176.912C201.225 176.912 197.241 177.179 195.656 178.773C194.063 180.367 191.409 187.792 191.409 189.648C191.409 191.504 192.736 203.992 194.063 206.636L192.483 207.151C191.156 222.545 197.789 224.411 197.789 224.411C200.18 238.745 202.57 232.637 202.57 236.354C202.57 240.067 200.18 238.745 200.18 238.745C200.18 238.745 198.056 244.586 192.75 246.7C187.444 248.823 157.988 260.233 155.592 262.619C153.202 265.056 153.469 276.194 153.469 276.194H209.887L214.003 259.975L210.347 256.319L216.642 250.014L222.937 256.314L219.281 259.97L223.397 276.189H279.816C279.816 276.189 280.111 265.042 277.692 262.609L277.702 262.623Z" fill="white"/>
<path d="M494.872 159.712L496.024 158.88C497.475 158.027 498.499 157.6 499.096 157.6C500.419 157.6 501.848 158.795 503.384 161.184C504.323 162.677 504.792 163.872 504.792 164.768C504.792 165.664 504.493 166.411 503.896 167.008C503.341 167.605 502.68 168.139 501.912 168.608C501.144 169.077 500.397 169.525 499.672 169.952C498.989 170.379 497.56 170.933 495.384 171.616C493.208 172.299 491.096 172.64 489.048 172.64C487.043 172.64 484.995 172.384 482.904 171.872C480.856 171.317 478.723 170.421 476.504 169.184C474.328 167.904 472.365 166.368 470.616 164.576C468.867 162.741 467.416 160.416 466.264 157.6C465.155 154.741 464.6 151.648 464.6 148.32C464.6 144.992 465.155 141.984 466.264 139.296C467.373 136.565 468.781 134.325 470.488 132.576C472.237 130.784 474.221 129.291 476.44 128.096C480.621 125.792 484.824 124.64 489.048 124.64C491.053 124.64 493.08 124.96 495.128 125.6C497.219 126.197 498.797 126.816 499.864 127.456L501.4 128.352C502.168 128.821 502.765 129.205 503.192 129.504C504.301 130.4 504.856 131.424 504.856 132.576C504.856 133.685 504.408 134.859 503.512 136.096C501.848 138.4 500.355 139.552 499.032 139.552C498.264 139.552 497.176 139.083 495.768 138.144C493.976 136.693 491.587 135.968 488.6 135.968C485.827 135.968 483.096 136.928 480.408 138.848C479.128 139.787 478.061 141.109 477.208 142.816C476.355 144.523 475.928 146.464 475.928 148.64C475.928 150.773 476.355 152.693 477.208 154.4C478.061 156.107 479.149 157.451 480.472 158.432C483.075 160.309 485.784 161.248 488.6 161.248C489.923 161.248 491.16 161.077 492.312 160.736C493.507 160.395 494.36 160.053 494.872 159.712ZM523.974 171.872C519.664 171.872 516.08 170.251 513.222 167.008C510.406 163.723 508.998 159.733 508.998 155.04V143.84C508.998 142.816 509.019 142.069 509.062 141.6C509.147 141.131 509.339 140.576 509.638 139.936C510.235 138.784 511.899 138.208 514.63 138.208C517.616 138.208 519.366 139.019 519.878 140.64C520.134 141.323 520.262 142.411 520.262 143.904V155.104C520.262 156.853 520.752 158.219 521.734 159.2C522.758 160.181 524.102 160.672 525.766 160.672C527.472 160.672 528.838 160.16 529.862 159.136C530.928 158.112 531.462 156.768 531.462 155.104V143.776C531.462 142.795 531.483 142.069 531.526 141.6C531.611 141.088 531.824 140.512 532.166 139.872C532.72 138.763 534.363 138.208 537.094 138.208C539.782 138.208 541.424 138.784 542.022 139.936C542.32 140.576 542.491 141.152 542.534 141.664C542.619 142.133 542.662 142.859 542.662 143.84V166.496C542.662 167.435 542.619 168.16 542.534 168.672C542.491 169.141 542.299 169.675 541.958 170.272C541.318 171.381 539.675 171.936 537.03 171.936C534.427 171.936 532.827 171.424 532.23 170.4C531.803 169.675 531.59 168.8 531.59 167.776C531.419 168.075 531.035 168.501 530.438 169.056C529.84 169.611 529.264 170.08 528.71 170.464C527.259 171.403 525.68 171.872 523.974 171.872ZM548.066 168.992C547.255 168.48 546.85 167.669 546.85 166.56C546.85 165.451 547.661 163.765 549.282 161.504C549.751 160.779 550.498 160.416 551.522 160.416C552.589 160.416 554.018 160.949 555.81 162.016C557.602 163.04 559.223 163.552 560.674 163.552C563.277 163.552 564.578 163.04 564.578 162.016C564.578 161.205 563.149 160.608 560.29 160.224C557.602 159.84 554.935 158.837 552.29 157.216C551.053 156.448 550.029 155.253 549.218 153.632C548.407 151.968 548.002 150.005 548.002 147.744C548.002 141.003 552.631 137.632 561.89 137.632C564.919 137.632 568.034 138.357 571.234 139.808C572.727 140.491 573.474 141.344 573.474 142.368C573.474 143.392 573.005 144.651 572.066 146.144C571.127 147.637 570.167 148.384 569.186 148.384C568.674 148.384 567.714 148.064 566.306 147.424C564.941 146.784 563.447 146.464 561.826 146.464C559.309 146.464 558.05 146.933 558.05 147.872C558.05 149.152 559.501 149.984 562.402 150.368C565.218 150.667 567.949 151.477 570.594 152.8C571.831 153.397 572.855 154.443 573.666 155.936C574.519 157.387 574.946 159.221 574.946 161.44C574.946 163.659 574.519 165.557 573.666 167.136C572.855 168.672 571.703 169.824 570.21 170.592C567.479 171.915 564.045 172.576 559.906 172.576C555.81 172.576 551.863 171.381 548.066 168.992ZM597.707 149.6L593.547 149.344V158.176C593.547 159.328 593.717 160.16 594.059 160.672C594.443 161.184 595.125 161.44 596.107 161.44C597.131 161.44 597.899 161.483 598.411 161.568C598.965 161.611 599.541 161.803 600.139 162.144C601.12 162.699 601.611 164.128 601.611 166.432C601.611 169.12 601.013 170.763 599.819 171.36C599.179 171.659 598.603 171.851 598.091 171.936C597.621 171.979 596.917 172 595.979 172C591.541 172 588.171 170.997 585.867 168.992C583.563 166.987 582.411 163.595 582.411 158.816V149.344C581.6 149.472 580.725 149.536 579.786 149.536C578.848 149.536 578.059 149.173 577.419 148.448C576.821 147.723 576.523 146.485 576.523 144.736C576.523 142.987 576.629 141.728 576.843 140.96C577.056 140.149 577.355 139.573 577.739 139.232C578.421 138.677 579.275 138.4 580.299 138.4L582.411 138.656V132.064C582.411 131.083 582.432 130.357 582.475 129.888C582.56 129.419 582.773 128.907 583.115 128.352C583.669 127.285 585.312 126.752 588.043 126.752C590.944 126.752 592.672 127.541 593.227 129.12C593.44 129.803 593.547 130.891 593.547 132.384V138.656C595.424 138.485 596.832 138.4 597.771 138.4C598.752 138.4 599.477 138.443 599.947 138.528C600.459 138.571 601.035 138.763 601.675 139.104C602.784 139.659 603.339 141.301 603.339 144.032C603.339 146.72 602.763 148.363 601.611 148.96C600.971 149.259 600.395 149.451 599.883 149.536C599.413 149.579 598.688 149.6 597.707 149.6ZM605.913 155.168C605.913 150.048 607.705 145.824 611.289 142.496C614.873 139.168 618.969 137.504 623.577 137.504C628.185 137.504 632.259 139.168 635.801 142.496C639.342 145.781 641.113 149.984 641.113 155.104C641.113 158.645 640.195 161.803 638.361 164.576C636.526 167.307 634.286 169.333 631.641 170.656C629.038 171.936 626.329 172.576 623.513 172.576C620.697 172.576 617.966 171.893 615.321 170.528C612.675 169.12 610.435 167.072 608.601 164.384C606.809 161.653 605.913 158.581 605.913 155.168ZM619.289 159.776C620.654 160.8 622.041 161.312 623.449 161.312C624.857 161.312 626.265 160.779 627.673 159.712C629.081 158.645 629.785 157.067 629.785 154.976C629.785 152.885 629.123 151.328 627.801 150.304C626.478 149.28 625.049 148.768 623.513 148.768C621.977 148.768 620.547 149.301 619.225 150.368C617.902 151.435 617.241 153.013 617.241 155.104C617.241 157.152 617.923 158.709 619.289 159.776ZM656.256 142.752C658.261 139.723 660.672 138.208 663.488 138.208C667.84 138.208 671.082 140.064 673.216 143.776C673.685 143.136 674.24 142.475 674.88 141.792C675.562 141.067 676.629 140.299 678.08 139.488C679.53 138.635 681.024 138.208 682.56 138.208C685.973 138.208 688.832 139.531 691.136 142.176C693.44 144.779 694.592 149.109 694.592 155.168V166.368C694.592 167.349 694.549 168.096 694.464 168.608C694.421 169.077 694.229 169.632 693.888 170.272C693.333 171.424 691.69 172 688.96 172C686.272 172 684.629 171.403 684.032 170.208C683.733 169.568 683.541 169.013 683.456 168.544C683.413 168.032 683.392 167.285 683.392 166.304V155.104C683.392 151.392 682.069 149.536 679.424 149.536C677.93 149.536 676.906 150.027 676.352 151.008C675.84 151.989 675.583 153.376 675.583 155.168V166.368C675.583 167.392 675.541 168.139 675.456 168.608C675.413 169.077 675.221 169.632 674.88 170.272C674.282 171.424 672.618 172 669.888 172C667.2 172 665.557 171.403 664.96 170.208C664.661 169.568 664.469 169.013 664.384 168.544C664.341 168.032 664.32 167.285 664.32 166.304V155.104C664.32 151.392 662.997 149.536 660.352 149.536C657.792 149.536 656.512 151.392 656.512 155.104V166.432C656.512 167.413 656.469 168.16 656.384 168.672C656.341 169.141 656.149 169.696 655.808 170.336C655.168 171.445 653.504 172 650.816 172C648.128 172 646.485 171.424 645.888 170.272C645.589 169.632 645.397 169.077 645.312 168.608C645.269 168.139 645.248 167.392 645.248 166.368V143.84C645.248 142.859 645.269 142.133 645.312 141.664C645.397 141.152 645.61 140.597 645.952 140C646.592 138.848 648.106 138.272 650.496 138.272C652.885 138.272 654.442 138.656 655.168 139.424C655.893 140.192 656.256 141.301 656.256 142.752ZM732.197 151.136C732.197 153.739 731.536 155.68 730.213 156.96C728.933 158.197 727.504 158.816 725.925 158.816H710.757C710.757 160.011 711.461 161.013 712.869 161.824C714.277 162.635 715.685 163.04 717.093 163.04C719.568 163.04 721.509 162.784 722.917 162.272L723.621 162.016C724.645 161.547 725.498 161.312 726.181 161.312C727.546 161.312 728.72 162.272 729.701 164.192C730.256 165.344 730.533 166.325 730.533 167.136C730.533 170.933 725.989 172.832 716.901 172.832C713.744 172.832 710.928 172.299 708.453 171.232C706.021 170.123 704.122 168.672 702.757 166.88C700.069 163.424 698.725 159.563 698.725 155.296C698.725 149.92 700.453 145.632 703.909 142.432C707.408 139.189 711.76 137.568 716.965 137.568C722.896 137.568 727.248 139.659 730.021 143.84C731.472 146.059 732.197 148.491 732.197 151.136ZM718.693 152.992C720.314 152.992 721.125 152.309 721.125 150.944C721.125 149.963 720.741 149.173 719.973 148.576C719.248 147.979 718.181 147.68 716.773 147.68C715.408 147.68 714.042 148.256 712.677 149.408C711.312 150.517 710.629 151.712 710.629 152.992H718.693ZM759.285 138.656C760.095 138.912 760.757 139.36 761.269 140C761.823 140.597 762.101 141.579 762.101 142.944C762.101 144.309 761.695 145.803 760.885 147.424C760.074 149.045 758.901 149.856 757.365 149.856C756.597 149.856 755.85 149.685 755.125 149.344C754.442 149.003 753.525 148.832 752.373 148.832C751.221 148.832 750.133 149.237 749.109 150.048C748.127 150.859 747.637 151.84 747.637 152.992V166.432C747.637 167.413 747.594 168.16 747.509 168.672C747.466 169.141 747.274 169.696 746.933 170.336C746.293 171.445 744.629 172 741.941 172C739.893 172 738.421 171.637 737.525 170.912C736.842 170.315 736.458 169.397 736.373 168.16C736.373 167.733 736.373 167.115 736.373 166.304V143.84C736.373 142.859 736.394 142.133 736.437 141.664C736.522 141.152 736.714 140.597 737.013 140C737.61 138.848 739.274 138.272 742.005 138.272C744.565 138.272 746.165 138.763 746.805 139.744C747.274 140.427 747.509 141.131 747.509 141.856C747.722 141.557 748.021 141.195 748.405 140.768C748.831 140.341 749.706 139.765 751.029 139.04C752.351 138.315 753.503 137.952 754.485 137.952C755.509 137.952 756.362 138.016 757.045 138.144C757.727 138.229 758.474 138.4 759.285 138.656ZM764.629 168.992C763.818 168.48 763.413 167.669 763.413 166.56C763.413 165.451 764.223 163.765 765.845 161.504C766.314 160.779 767.061 160.416 768.085 160.416C769.151 160.416 770.581 160.949 772.373 162.016C774.165 163.04 775.786 163.552 777.237 163.552C779.839 163.552 781.141 163.04 781.141 162.016C781.141 161.205 779.711 160.608 776.853 160.224C774.165 159.84 771.498 158.837 768.853 157.216C767.615 156.448 766.591 155.253 765.781 153.632C764.97 151.968 764.565 150.005 764.565 147.744C764.565 141.003 769.194 137.632 778.453 137.632C781.482 137.632 784.597 138.357 787.797 139.808C789.29 140.491 790.037 141.344 790.037 142.368C790.037 143.392 789.567 144.651 788.629 146.144C787.69 147.637 786.73 148.384 785.749 148.384C785.237 148.384 784.277 148.064 782.869 147.424C781.503 146.784 780.01 146.464 778.389 146.464C775.871 146.464 774.613 146.933 774.613 147.872C774.613 149.152 776.063 149.984 778.965 150.368C781.781 150.667 784.511 151.477 787.157 152.8C788.394 153.397 789.418 154.443 790.229 155.936C791.082 157.387 791.509 159.221 791.509 161.44C791.509 163.659 791.082 165.557 790.229 167.136C789.418 168.672 788.266 169.824 786.773 170.592C784.042 171.915 780.607 172.576 776.469 172.576C772.373 172.576 768.426 171.381 764.629 168.992Z" fill="black"/>
<path d="M490.904 236.376C493.123 234.157 495.512 233.048 498.072 233.048C500.717 233.048 502.765 233.261 504.216 233.688C505.667 234.115 506.776 234.627 507.544 235.224C508.312 235.736 508.909 236.632 509.336 237.912C509.763 239.363 509.976 241.624 509.976 244.696V315.992C509.976 317.955 509.891 319.448 509.72 320.472C509.635 321.411 509.251 322.52 508.568 323.8C507.373 326.104 504.045 327.256 498.584 327.256C493.293 327.256 490.008 326.147 488.728 323.928C488.045 322.648 487.619 321.496 487.448 320.472C487.363 319.363 487.32 317.784 487.32 315.736V270.04L485.656 271.576C482.157 274.221 479.171 275.544 476.696 275.544C474.221 275.544 471.619 274.051 468.888 271.064C466.243 268.077 464.92 265.432 464.92 263.128C464.92 260.824 466.456 258.307 469.528 255.576L490.52 236.632L490.904 236.376ZM586.421 296.92C586.421 306.477 582.922 314.2 575.925 320.088C569.013 325.891 561.162 328.792 552.373 328.792C543.584 328.792 535.69 325.891 528.693 320.088C521.781 314.285 518.325 306.563 518.325 296.92C518.325 293.336 519.178 289.88 520.885 286.552C522.677 283.139 524.426 280.664 526.133 279.128L528.821 276.696C528.224 276.184 527.498 275.501 526.645 274.648C525.792 273.795 524.64 271.96 523.189 269.144C521.824 266.243 521.141 263.256 521.141 260.184C521.141 251.821 524.298 244.909 530.613 239.448C536.928 233.987 544.266 231.256 552.629 231.256C560.992 231.256 568.245 234.029 574.389 239.576C580.533 245.123 583.605 252.205 583.605 260.824C583.605 263.384 582.965 265.987 581.685 268.632C580.49 271.277 579.253 273.283 577.973 274.648L576.053 276.696C576.821 277.293 577.76 278.189 578.869 279.384C580.064 280.493 581.6 282.797 583.477 286.296C585.44 289.795 586.421 293.336 586.421 296.92ZM560.949 260.056C560.949 258.349 560.224 256.771 558.773 255.32C557.322 253.784 555.146 253.016 552.245 253.016C549.429 253.016 547.338 253.741 545.973 255.192C544.608 256.643 543.925 258.264 543.925 260.056C543.925 261.763 544.65 263.384 546.101 264.92C547.637 266.456 549.77 267.224 552.501 267.224C555.317 267.224 557.408 266.456 558.773 264.92C560.224 263.384 560.949 261.763 560.949 260.056ZM543.925 304.088C545.888 306.136 548.746 307.16 552.501 307.16C556.256 307.16 559.072 306.136 560.949 304.088C562.826 302.04 563.765 299.864 563.765 297.56C563.765 295.171 562.784 292.952 560.821 290.904C558.944 288.856 556.128 287.832 552.373 287.832C548.704 287.832 545.888 288.856 543.925 290.904C541.962 292.867 540.981 295.043 540.981 297.432C540.981 299.821 541.962 302.04 543.925 304.088ZM614.585 305.88C616.036 307.331 616.761 310.317 616.761 314.84V315.352C616.761 317.4 616.676 318.936 616.505 319.96C616.42 320.899 615.993 322.051 615.225 323.416C613.945 325.891 610.702 327.128 605.497 327.128C600.377 327.128 596.964 326.317 595.257 324.696C593.636 323.075 592.825 320.003 592.825 315.48V314.968C592.825 313.005 592.868 311.512 592.953 310.488C593.124 309.464 593.55 308.312 594.233 307.032C595.513 304.472 598.713 303.192 603.833 303.192C609.038 303.192 612.622 304.088 614.585 305.88ZM684.768 304.472C688.267 304.472 690.741 304.899 692.192 305.752C693.728 306.52 694.752 307.757 695.264 309.464C695.776 311.085 696.032 313.261 696.032 315.992C696.032 318.637 695.733 320.771 695.136 322.392C694.624 324.013 693.728 325.123 692.448 325.72C690.571 326.744 687.925 327.256 684.512 327.256H634.464C631.392 327.256 628.747 326.104 626.528 323.8C624.309 321.496 623.2 318.808 623.2 315.736C623.2 311.128 624.779 306.904 627.936 303.064C631.179 299.139 635.061 295.811 639.584 293.08C644.107 290.264 648.629 287.533 653.152 284.888C657.675 282.157 661.515 279.085 664.672 275.672C667.915 272.259 669.536 268.632 669.536 264.792C669.536 264.024 669.237 262.957 668.64 261.592C668.043 260.141 667.36 258.989 666.592 258.136C665.909 257.197 664.8 256.344 663.264 255.576C661.728 254.808 659.595 254.424 656.864 254.424C654.133 254.424 651.744 255.448 649.696 257.496C647.733 259.459 646.624 261.421 646.368 263.384L645.856 266.328V267.096C645.856 268.973 645.771 270.381 645.6 271.32C645.515 272.259 645.131 273.325 644.448 274.52C643.168 276.568 639.84 277.592 634.464 277.592C628.491 277.592 624.949 275.971 623.84 272.728C623.413 271.363 623.2 269.187 623.2 266.2C623.2 257.325 626.357 249.389 632.672 242.392C639.072 235.309 647.392 231.768 657.632 231.768C667.957 231.768 676.32 235.352 682.72 242.52C689.12 249.603 692.32 257.709 692.32 266.84C692.32 271.704 691.253 276.312 689.12 280.664C686.987 285.016 684.427 288.515 681.44 291.16C675.125 296.792 669.493 300.589 664.544 302.552L661.344 303.832V304.472H684.768ZM743.312 279.896C756.368 292.44 765.627 301.869 771.088 308.184C773.904 311.341 775.312 314.029 775.312 316.248C775.312 318.381 773.605 320.941 770.192 323.928C766.779 326.829 763.963 328.28 761.744 328.28C759.611 328.28 757.008 326.488 753.936 322.904L725.776 290.776V315.736C725.776 317.784 725.691 319.277 725.52 320.216C725.435 321.155 725.051 322.264 724.368 323.544C723.173 325.848 719.845 327 714.384 327C708.411 327 704.912 325.379 703.888 322.136C703.376 320.771 703.12 318.595 703.12 315.608V244.44C703.12 242.477 703.163 241.027 703.248 240.088C703.419 239.064 703.845 237.912 704.528 236.632C705.723 234.328 709.051 233.176 714.512 233.176C720.485 233.176 724.027 234.755 725.136 237.912C725.563 239.363 725.776 241.581 725.776 244.568V269.016C737.381 255.96 746.768 245.251 753.936 236.888C756.923 233.389 759.525 231.64 761.744 231.64C763.963 231.64 766.779 233.133 770.192 236.12C773.605 239.021 775.312 241.581 775.312 243.8C775.312 245.933 774.032 248.493 771.472 251.48C766.523 257.197 758.843 265.048 748.432 275.032L743.312 279.896Z" fill="black"/>
<g filter="url(#filter1_di_17_13)">
<rect x="954" width="853" height="456" rx="110" fill="#BE7FFE"/>
</g>
<ellipse cx="1164" cy="231.5" rx="152" ry="144.5" fill="black"/>
<path d="M1217.12 200.75L1164 169.5L1110.88 200.75V263.25L1164 294.5L1217.12 263.25V200.75Z" stroke="white" stroke-width="4" stroke-linejoin="round"/>
<path d="M1164 225.75V250.75M1189 213.25V250.75M1139 238.25V250.75" stroke="white" stroke-width="4" stroke-linecap="round" stroke-linejoin="round"/>
<g filter="url(#filter2_di_17_13)">
<rect x="954" y="563" width="853" height="456" rx="110" fill="#49FF7C"/>
</g>
<ellipse cx="1164" cy="801.5" rx="152" ry="144.5" fill="black"/>
<g clip-path="url(#clip0_17_13)">
<path d="M1239 847.125V856.5H1089V744H1098.38V847.125H1239ZM1229.62 755.719V787.603C1229.62 788.069 1229.48 788.525 1229.22 788.911C1228.96 789.296 1228.59 789.595 1228.15 789.767C1227.72 789.94 1227.25 789.978 1226.79 789.878C1226.33 789.778 1225.92 789.544 1225.6 789.206L1216.74 780.347L1170.38 826.692C1170.16 826.925 1169.9 827.111 1169.61 827.238C1169.32 827.365 1169.01 827.431 1168.69 827.431C1168.38 827.431 1168.06 827.365 1167.77 827.238C1167.48 827.111 1167.22 826.925 1167 826.692L1149.94 809.625L1119.47 840.094L1105.41 826.031L1148.25 783.183C1148.47 782.95 1148.73 782.764 1149.02 782.637C1149.31 782.51 1149.63 782.444 1149.94 782.444C1150.26 782.444 1150.57 782.51 1150.86 782.637C1151.15 782.764 1151.41 782.95 1151.63 783.183L1168.69 800.25L1202.68 766.266L1193.82 757.406C1193.48 757.086 1193.24 756.671 1193.13 756.214C1193.03 755.756 1193.07 755.279 1193.24 754.844C1193.42 754.408 1193.72 754.036 1194.11 753.773C1194.49 753.511 1194.95 753.373 1195.42 753.375H1227.4C1228 753.375 1228.57 753.612 1228.99 754.034C1229.41 754.456 1229.65 755.028 1229.65 755.625V755.723L1229.62 755.719Z" fill="white"/>
</g>
<g filter="url(#filter3_di_17_13)">
<rect x="4" y="563" width="853" height="456" rx="110" fill="#31D6FB"/>
</g>
<ellipse cx="219" cy="801.5" rx="152" ry="144.5" fill="black"/>
<path d="M209.625 837.573V793.555L162.75 770.117V834.57L202.594 854.565L200.323 863.867L153.375 840.43V759.57L214.312 729.175L275.25 759.57V779.346C271.832 779.883 268.707 780.981 265.875 782.642V770.117L219 793.555V828.198L209.625 837.573ZM199.225 747.119L241.998 771.582L260.089 762.5L214.312 739.575L199.225 747.119ZM214.312 785.425L231.891 776.636L189.117 752.173L168.536 762.5L214.312 785.425ZM279.352 790.625C281.402 790.625 283.307 790.991 285.064 791.724C286.822 792.456 288.385 793.457 289.752 794.727C291.119 795.996 292.145 797.534 292.828 799.341C293.512 801.147 293.902 803.076 294 805.127C294 807.031 293.634 808.887 292.901 810.693C292.169 812.5 291.119 814.087 289.752 815.454L237.237 867.969L209.625 874.854L216.51 847.241L269.024 794.8C270.44 793.384 272.027 792.334 273.785 791.65C275.543 790.967 277.398 790.625 279.352 790.625ZM283.087 808.862C284.112 807.837 284.625 806.592 284.625 805.127C284.625 803.613 284.137 802.393 283.16 801.465C282.184 800.537 280.914 800.049 279.352 800C278.668 800 278.009 800.098 277.374 800.293C276.739 800.488 276.178 800.854 275.689 801.392L225.006 852.075L222.516 861.963L232.403 859.473L283.087 808.862Z" fill="white"/>
<path d="M1520.26 167.408C1519.15 166.043 1518.6 164.827 1518.6 163.76C1518.6 162.651 1519.52 161.2 1521.35 159.408C1522.42 158.384 1523.55 157.872 1524.74 157.872C1525.94 157.872 1527.6 158.939 1529.74 161.072C1530.33 161.797 1531.19 162.501 1532.3 163.184C1533.41 163.824 1534.43 164.144 1535.37 164.144C1539.34 164.144 1541.32 162.523 1541.32 159.28C1541.32 158.299 1540.77 157.488 1539.66 156.848C1538.59 156.165 1537.25 155.675 1535.62 155.376C1534 155.077 1532.25 154.608 1530.38 153.968C1528.5 153.285 1526.75 152.496 1525.13 151.6C1523.51 150.704 1522.14 149.296 1521.03 147.376C1519.97 145.413 1519.43 143.067 1519.43 140.336C1519.43 136.581 1520.82 133.317 1523.59 130.544C1526.41 127.728 1530.23 126.32 1535.05 126.32C1537.61 126.32 1539.93 126.661 1542.02 127.344C1544.16 127.984 1545.63 128.645 1546.44 129.328L1548.04 130.544C1549.36 131.781 1550.02 132.827 1550.02 133.68C1550.02 134.533 1549.51 135.707 1548.49 137.2C1547.04 139.333 1545.54 140.4 1544.01 140.4C1543.11 140.4 1542 139.973 1540.68 139.12C1540.55 139.035 1540.3 138.821 1539.91 138.48C1539.57 138.139 1539.25 137.861 1538.95 137.648C1538.06 137.093 1536.9 136.816 1535.5 136.816C1534.13 136.816 1532.98 137.157 1532.04 137.84C1531.14 138.48 1530.7 139.397 1530.7 140.592C1530.7 141.744 1531.23 142.683 1532.3 143.408C1533.41 144.133 1534.77 144.624 1536.39 144.88C1538.01 145.136 1539.78 145.541 1541.7 146.096C1543.62 146.608 1545.39 147.248 1547.02 148.016C1548.64 148.784 1549.98 150.128 1551.05 152.048C1552.16 153.925 1552.71 156.251 1552.71 159.024C1552.71 161.797 1552.16 164.251 1551.05 166.384C1549.94 168.475 1548.49 170.096 1546.7 171.248C1543.24 173.509 1539.55 174.64 1535.62 174.64C1533.62 174.64 1531.72 174.405 1529.93 173.936C1528.14 173.424 1526.69 172.805 1525.58 172.08C1523.31 170.715 1521.74 169.392 1520.84 168.112L1520.26 167.408ZM1578.76 143.856C1579.02 141.467 1580.7 140.272 1583.82 140.272C1585.48 140.272 1586.72 140.4 1587.53 140.656C1588.34 140.912 1588.89 141.36 1589.19 142C1589.53 142.64 1589.73 143.216 1589.77 143.728C1589.85 144.197 1589.9 144.923 1589.9 145.904V168.304C1589.9 169.285 1589.85 170.032 1589.77 170.544C1589.73 171.013 1589.56 171.568 1589.26 172.208C1588.66 173.317 1587.19 173.872 1584.84 173.872C1582.54 173.872 1580.98 173.595 1580.17 173.04C1579.4 172.443 1578.95 171.589 1578.82 170.48C1577.25 172.741 1574.6 173.872 1570.89 173.872C1567.22 173.872 1563.81 172.187 1560.65 168.816C1557.49 165.445 1555.91 161.541 1555.91 157.104C1555.91 152.624 1557.49 148.72 1560.65 145.392C1563.85 142.021 1567.35 140.336 1571.14 140.336C1572.6 140.336 1573.92 140.592 1575.11 141.104C1576.31 141.616 1577.14 142.107 1577.61 142.576C1578.08 143.003 1578.46 143.429 1578.76 143.856ZM1567.11 157.168C1567.11 158.576 1567.67 159.856 1568.78 161.008C1569.89 162.117 1571.23 162.672 1572.81 162.672C1574.39 162.672 1575.69 162.096 1576.71 160.944C1577.78 159.792 1578.31 158.533 1578.31 157.168C1578.31 155.76 1577.8 154.459 1576.78 153.264C1575.8 152.069 1574.45 151.472 1572.74 151.472C1571.08 151.472 1569.72 152.069 1568.65 153.264C1567.62 154.459 1567.11 155.76 1567.11 157.168ZM1595 130.032C1595 129.051 1595.02 128.325 1595.06 127.856C1595.15 127.344 1595.34 126.768 1595.64 126.128C1596.23 124.976 1597.9 124.4 1600.63 124.4C1603.23 124.4 1604.85 124.976 1605.49 126.128C1605.83 126.768 1606.03 127.344 1606.07 127.856C1606.15 128.368 1606.2 129.115 1606.2 130.096V159.728C1606.2 161.264 1606.33 162.245 1606.58 162.672C1606.84 163.056 1607.39 163.248 1608.25 163.248C1609.14 163.248 1609.74 163.291 1610.04 163.376C1610.34 163.419 1610.7 163.589 1611.13 163.888C1611.98 164.443 1612.41 165.957 1612.41 168.432C1612.41 171.12 1611.98 172.763 1611.13 173.36C1610.02 174.128 1607.37 174.256 1603.19 173.744C1599.9 173.317 1597.77 172.229 1596.79 170.48C1595.59 168.389 1595 165.061 1595 160.496V130.032ZM1647.82 153.136C1647.82 155.739 1647.16 157.68 1645.84 158.96C1644.56 160.197 1643.13 160.816 1641.55 160.816H1626.38C1626.38 162.011 1627.09 163.013 1628.49 163.824C1629.9 164.635 1631.31 165.04 1632.72 165.04C1635.19 165.04 1637.13 164.784 1638.54 164.272L1639.25 164.016C1640.27 163.547 1641.12 163.312 1641.81 163.312C1643.17 163.312 1644.34 164.272 1645.33 166.192C1645.88 167.344 1646.16 168.325 1646.16 169.136C1646.16 172.933 1641.61 174.832 1632.53 174.832C1629.37 174.832 1626.55 174.299 1624.08 173.232C1621.65 172.123 1619.75 170.672 1618.38 168.88C1615.69 165.424 1614.35 161.563 1614.35 157.296C1614.35 151.92 1616.08 147.632 1619.53 144.432C1623.03 141.189 1627.38 139.568 1632.59 139.568C1638.52 139.568 1642.87 141.659 1645.65 145.84C1647.1 148.059 1647.82 150.491 1647.82 153.136ZM1634.32 154.992C1635.94 154.992 1636.75 154.309 1636.75 152.944C1636.75 151.963 1636.37 151.173 1635.6 150.576C1634.87 149.979 1633.81 149.68 1632.4 149.68C1631.03 149.68 1629.67 150.256 1628.3 151.408C1626.94 152.517 1626.25 153.712 1626.25 154.992H1634.32ZM1652.25 170.992C1651.44 170.48 1651.04 169.669 1651.04 168.56C1651.04 167.451 1651.85 165.765 1653.47 163.504C1653.94 162.779 1654.69 162.416 1655.71 162.416C1656.78 162.416 1658.21 162.949 1660 164.016C1661.79 165.04 1663.41 165.552 1664.86 165.552C1667.46 165.552 1668.77 165.04 1668.77 164.016C1668.77 163.205 1667.34 162.608 1664.48 162.224C1661.79 161.84 1659.12 160.837 1656.48 159.216C1655.24 158.448 1654.22 157.253 1653.41 155.632C1652.59 153.968 1652.19 152.005 1652.19 149.744C1652.19 143.003 1656.82 139.632 1666.08 139.632C1669.11 139.632 1672.22 140.357 1675.42 141.808C1676.91 142.491 1677.66 143.344 1677.66 144.368C1677.66 145.392 1677.19 146.651 1676.25 148.144C1675.31 149.637 1674.35 150.384 1673.37 150.384C1672.86 150.384 1671.9 150.064 1670.49 149.424C1669.13 148.784 1667.63 148.464 1666.01 148.464C1663.5 148.464 1662.24 148.933 1662.24 149.872C1662.24 151.152 1663.69 151.984 1666.59 152.368C1669.41 152.667 1672.14 153.477 1674.78 154.8C1676.02 155.397 1677.04 156.443 1677.85 157.936C1678.71 159.387 1679.13 161.221 1679.13 163.44C1679.13 165.659 1678.71 167.557 1677.85 169.136C1677.04 170.672 1675.89 171.824 1674.4 172.592C1671.67 173.915 1668.23 174.576 1664.09 174.576C1660 174.576 1656.05 173.381 1652.25 170.992Z" fill="black"/>
<path d="M1420.77 304.472C1424.27 304.472 1426.74 304.899 1428.19 305.752C1429.73 306.52 1430.75 307.757 1431.26 309.464C1431.78 311.085 1432.03 313.261 1432.03 315.992C1432.03 318.637 1431.73 320.771 1431.14 322.392C1430.62 324.013 1429.73 325.123 1428.45 325.72C1426.57 326.744 1423.93 327.256 1420.51 327.256H1370.46C1367.39 327.256 1364.75 326.104 1362.53 323.8C1360.31 321.496 1359.2 318.808 1359.2 315.736C1359.2 311.128 1360.78 306.904 1363.94 303.064C1367.18 299.139 1371.06 295.811 1375.58 293.08C1380.11 290.264 1384.63 287.533 1389.15 284.888C1393.67 282.157 1397.51 279.085 1400.67 275.672C1403.91 272.259 1405.54 268.632 1405.54 264.792C1405.54 264.024 1405.24 262.957 1404.64 261.592C1404.04 260.141 1403.36 258.989 1402.59 258.136C1401.91 257.197 1400.8 256.344 1399.26 255.576C1397.73 254.808 1395.59 254.424 1392.86 254.424C1390.13 254.424 1387.74 255.448 1385.7 257.496C1383.73 259.459 1382.62 261.421 1382.37 263.384L1381.86 266.328V267.096C1381.86 268.973 1381.77 270.381 1381.6 271.32C1381.51 272.259 1381.13 273.325 1380.45 274.52C1379.17 276.568 1375.84 277.592 1370.46 277.592C1364.49 277.592 1360.95 275.971 1359.84 272.728C1359.41 271.363 1359.2 269.187 1359.2 266.2C1359.2 257.325 1362.36 249.389 1368.67 242.392C1375.07 235.309 1383.39 231.768 1393.63 231.768C1403.96 231.768 1412.32 235.352 1418.72 242.52C1425.12 249.603 1428.32 257.709 1428.32 266.84C1428.32 271.704 1427.25 276.312 1425.12 280.664C1422.99 285.016 1420.43 288.515 1417.44 291.16C1411.13 296.792 1405.49 300.589 1400.54 302.552L1397.34 303.832V304.472H1420.77ZM1453.97 232.92L1473.42 233.048H1485.46C1487.5 233.048 1489 233.133 1489.94 233.304C1490.87 233.389 1491.98 233.773 1493.26 234.456C1495.57 235.651 1496.72 239.064 1496.72 244.696C1496.72 249.816 1495.65 252.931 1493.52 254.04C1492.33 254.723 1491.26 255.149 1490.32 255.32C1489.47 255.405 1488.1 255.448 1486.22 255.448H1463.82C1463.65 256.472 1463.23 259.715 1462.54 265.176C1463.48 265.005 1464.98 264.92 1467.02 264.92C1475.13 264.92 1482.43 267.992 1488.91 274.136C1495.4 280.195 1498.64 287.661 1498.64 296.536C1498.64 305.325 1495.57 312.92 1489.42 319.32C1483.28 325.635 1475.64 328.792 1466.51 328.792C1458.58 328.792 1451.41 326.787 1445.01 322.776C1443.56 321.837 1442.49 321.027 1441.81 320.344L1440.78 319.448C1437.54 316.632 1435.92 314.072 1435.92 311.768C1435.92 309.464 1437.5 306.691 1440.66 303.448C1443.22 300.632 1445.69 299.224 1448.08 299.224C1450.47 299.224 1453.33 300.589 1456.66 303.32C1458.19 305.112 1460.84 306.008 1464.59 306.008C1468.43 306.008 1471.25 305.197 1473.04 303.576C1474.92 301.955 1475.86 299.736 1475.86 296.92C1475.86 294.019 1474.83 291.757 1472.78 290.136C1470.82 288.429 1468.56 287.576 1466 287.576C1463.44 287.576 1461.39 288.344 1459.86 289.88C1457.55 291.843 1455.21 292.824 1452.82 292.824C1450.51 292.824 1447.82 292.013 1444.75 290.392C1441.77 288.771 1439.8 287.491 1438.86 286.552C1437.93 285.528 1437.46 284.461 1437.46 283.352C1437.46 282.243 1438.31 275.373 1440.02 262.744C1441.72 250.115 1442.62 243.544 1442.7 243.032C1442.79 242.52 1443.09 241.624 1443.6 240.344C1444.11 239.064 1444.71 237.912 1445.39 236.888C1446.16 235.864 1447.27 234.968 1448.72 234.2C1450.26 233.347 1452.01 232.92 1453.97 232.92ZM1526.84 305.88C1528.29 307.331 1529.01 310.317 1529.01 314.84V315.352C1529.01 317.4 1528.93 318.936 1528.76 319.96C1528.67 320.899 1528.24 322.051 1527.48 323.416C1526.2 325.891 1522.95 327.128 1517.75 327.128C1512.63 327.128 1509.21 326.317 1507.51 324.696C1505.89 323.075 1505.08 320.003 1505.08 315.48V314.968C1505.08 313.005 1505.12 311.512 1505.2 310.488C1505.37 309.464 1505.8 308.312 1506.48 307.032C1507.76 304.472 1510.96 303.192 1516.08 303.192C1521.29 303.192 1524.87 304.088 1526.84 305.88ZM1552.22 232.92L1571.67 233.048H1583.71C1585.75 233.048 1587.25 233.133 1588.19 233.304C1589.12 233.389 1590.23 233.773 1591.51 234.456C1593.82 235.651 1594.97 239.064 1594.97 244.696C1594.97 249.816 1593.9 252.931 1591.77 254.04C1590.58 254.723 1589.51 255.149 1588.57 255.32C1587.72 255.405 1586.35 255.448 1584.47 255.448H1562.07C1561.9 256.472 1561.48 259.715 1560.79 265.176C1561.73 265.005 1563.23 264.92 1565.27 264.92C1573.38 264.92 1580.68 267.992 1587.16 274.136C1593.65 280.195 1596.89 287.661 1596.89 296.536C1596.89 305.325 1593.82 312.92 1587.67 319.32C1581.53 325.635 1573.89 328.792 1564.76 328.792C1556.83 328.792 1549.66 326.787 1543.26 322.776C1541.81 321.837 1540.74 321.027 1540.06 320.344L1539.03 319.448C1535.79 316.632 1534.17 314.072 1534.17 311.768C1534.17 309.464 1535.75 306.691 1538.91 303.448C1541.47 300.632 1543.94 299.224 1546.33 299.224C1548.72 299.224 1551.58 300.589 1554.91 303.32C1556.44 305.112 1559.09 306.008 1562.84 306.008C1566.68 306.008 1569.5 305.197 1571.29 303.576C1573.17 301.955 1574.11 299.736 1574.11 296.92C1574.11 294.019 1573.08 291.757 1571.03 290.136C1569.07 288.429 1566.81 287.576 1564.25 287.576C1561.69 287.576 1559.64 288.344 1558.11 289.88C1555.8 291.843 1553.46 292.824 1551.07 292.824C1548.76 292.824 1546.07 292.013 1543 290.392C1540.02 288.771 1538.05 287.491 1537.11 286.552C1536.18 285.528 1535.71 284.461 1535.71 283.352C1535.71 282.243 1536.56 275.373 1538.27 262.744C1539.97 250.115 1540.87 243.544 1540.95 243.032C1541.04 242.52 1541.34 241.624 1541.85 240.344C1542.36 239.064 1542.96 237.912 1543.64 236.888C1544.41 235.864 1545.52 234.968 1546.97 234.2C1548.51 233.347 1550.26 232.92 1552.22 232.92ZM1613.05 244.056C1615.53 240.557 1618.98 237.656 1623.42 235.352C1627.94 232.963 1633.15 231.768 1639.04 231.768C1644.93 231.768 1650.05 232.92 1654.4 235.224C1658.83 237.528 1662.29 240.387 1664.76 243.8C1667.33 247.213 1669.37 251.224 1670.91 255.832C1673.47 263.512 1674.75 271.661 1674.75 280.28C1674.75 295.725 1671.42 307.971 1664.76 317.016C1662.29 320.429 1658.83 323.245 1654.4 325.464C1650.05 327.683 1644.97 328.792 1639.17 328.792C1633.36 328.792 1628.2 327.683 1623.68 325.464C1619.24 323.16 1615.74 320.344 1613.18 317.016C1610.71 313.688 1608.66 309.72 1607.04 305.112C1604.56 297.773 1603.33 289.453 1603.33 280.152C1603.33 271.619 1604.31 264.323 1606.27 258.264C1608.32 252.205 1610.58 247.469 1613.05 244.056ZM1638.91 306.008C1647.7 306.008 1652.09 297.645 1652.09 280.92V280.152C1652.09 263 1647.74 254.424 1639.04 254.424C1630.33 254.424 1625.98 263.043 1625.98 280.28C1625.98 297.432 1630.29 306.008 1638.91 306.008ZM1723.31 279.896C1736.37 292.44 1745.63 301.869 1751.09 308.184C1753.9 311.341 1755.31 314.029 1755.31 316.248C1755.31 318.381 1753.61 320.941 1750.19 323.928C1746.78 326.829 1743.96 328.28 1741.74 328.28C1739.61 328.28 1737.01 326.488 1733.94 322.904L1705.78 290.776V315.736C1705.78 317.784 1705.69 319.277 1705.52 320.216C1705.43 321.155 1705.05 322.264 1704.37 323.544C1703.17 325.848 1699.85 327 1694.38 327C1688.41 327 1684.91 325.379 1683.89 322.136C1683.38 320.771 1683.12 318.595 1683.12 315.608V244.44C1683.12 242.477 1683.16 241.027 1683.25 240.088C1683.42 239.064 1683.85 237.912 1684.53 236.632C1685.72 234.328 1689.05 233.176 1694.51 233.176C1700.49 233.176 1704.03 234.755 1705.14 237.912C1705.56 239.363 1705.78 241.581 1705.78 244.568V269.016C1717.38 255.96 1726.77 245.251 1733.94 236.888C1736.92 233.389 1739.53 231.64 1741.74 231.64C1743.96 231.64 1746.78 233.133 1750.19 236.12C1753.61 239.021 1755.31 241.581 1755.31 243.8C1755.31 245.933 1754.03 248.493 1751.47 251.48C1746.52 257.197 1738.84 265.048 1728.43 275.032L1723.31 279.896Z" fill="black"/>
<path d="M1505.46 711.064C1506.1 712.6 1506.42 713.709 1506.42 714.392C1506.42 716.013 1505.1 717.379 1502.46 718.488C1501.09 719.085 1499.98 719.384 1499.13 719.384C1498.32 719.384 1497.63 719.192 1497.08 718.808C1496.57 718.381 1496.18 717.955 1495.93 717.528C1495.5 716.717 1493.84 712.856 1490.94 705.944L1488.95 706.072H1480.89V713.304C1480.89 714.285 1480.85 715.032 1480.76 715.544C1480.72 716.013 1480.53 716.568 1480.18 717.208C1479.59 718.36 1477.92 718.936 1475.19 718.936C1472.21 718.936 1470.46 718.147 1469.94 716.568C1469.69 715.843 1469.56 714.733 1469.56 713.24V677.72C1469.56 676.739 1469.58 676.013 1469.62 675.544C1469.71 675.032 1469.92 674.456 1470.26 673.816C1470.86 672.664 1472.53 672.088 1475.26 672.088H1489.08C1492.83 672.088 1496.48 673.453 1500.02 676.184C1501.73 677.507 1503.14 679.299 1504.25 681.56C1505.36 683.821 1505.91 686.339 1505.91 689.112C1505.91 693.933 1504.31 697.901 1501.11 701.016C1502.05 703.277 1503.5 706.627 1505.46 711.064ZM1480.89 694.744H1489.08C1490.32 694.744 1491.55 694.275 1492.79 693.336C1494.03 692.397 1494.65 690.989 1494.65 689.112C1494.65 687.235 1494.03 685.827 1492.79 684.888C1491.55 683.907 1490.27 683.416 1488.95 683.416H1480.89V694.744ZM1541.2 698.136C1541.2 700.739 1540.54 702.68 1539.21 703.96C1537.93 705.197 1536.5 705.816 1534.93 705.816H1519.76C1519.76 707.011 1520.46 708.013 1521.87 708.824C1523.28 709.635 1524.69 710.04 1526.09 710.04C1528.57 710.04 1530.51 709.784 1531.92 709.272L1532.62 709.016C1533.65 708.547 1534.5 708.312 1535.18 708.312C1536.55 708.312 1537.72 709.272 1538.7 711.192C1539.26 712.344 1539.53 713.325 1539.53 714.136C1539.53 717.933 1534.99 719.832 1525.9 719.832C1522.74 719.832 1519.93 719.299 1517.45 718.232C1515.02 717.123 1513.12 715.672 1511.76 713.88C1509.07 710.424 1507.73 706.563 1507.73 702.296C1507.73 696.92 1509.45 692.632 1512.91 689.432C1516.41 686.189 1520.76 684.568 1525.97 684.568C1531.9 684.568 1536.25 686.659 1539.02 690.84C1540.47 693.059 1541.2 695.491 1541.2 698.136ZM1527.69 699.992C1529.31 699.992 1530.13 699.309 1530.13 697.944C1530.13 696.963 1529.74 696.173 1528.97 695.576C1528.25 694.979 1527.18 694.68 1525.77 694.68C1524.41 694.68 1523.04 695.256 1521.68 696.408C1520.31 697.517 1519.63 698.712 1519.63 699.992H1527.69ZM1577.42 686.04C1579.64 687.363 1580.75 688.771 1580.75 690.264C1580.75 691.117 1580.32 692.291 1579.47 693.784L1566.22 716.504C1565.79 717.229 1565.11 717.891 1564.17 718.488C1563.23 719.043 1562.29 719.32 1561.36 719.32C1560.46 719.32 1559.58 719.107 1558.73 718.68C1557.92 718.211 1557.34 717.741 1557 717.272L1556.43 716.568L1543.12 693.784C1542.26 692.376 1541.84 691.224 1541.84 690.328C1541.84 688.792 1542.94 687.363 1545.16 686.04C1546.78 685.101 1548.06 684.632 1549 684.632C1549.94 684.632 1550.67 684.931 1551.18 685.528C1551.73 686.083 1552.31 686.936 1552.91 688.088L1561.29 704.216L1569.68 688.088C1570.14 687.277 1570.49 686.701 1570.7 686.36C1570.96 685.976 1571.34 685.613 1571.85 685.272C1572.36 684.888 1573.05 684.696 1573.9 684.696C1574.75 684.696 1575.93 685.144 1577.42 686.04ZM1614.82 698.136C1614.82 700.739 1614.16 702.68 1612.84 703.96C1611.56 705.197 1610.13 705.816 1608.55 705.816H1593.38C1593.38 707.011 1594.09 708.013 1595.49 708.824C1596.9 709.635 1598.31 710.04 1599.72 710.04C1602.19 710.04 1604.13 709.784 1605.54 709.272L1606.25 709.016C1607.27 708.547 1608.12 708.312 1608.81 708.312C1610.17 708.312 1611.34 709.272 1612.33 711.192C1612.88 712.344 1613.16 713.325 1613.16 714.136C1613.16 717.933 1608.61 719.832 1599.53 719.832C1596.37 719.832 1593.55 719.299 1591.08 718.232C1588.65 717.123 1586.75 715.672 1585.38 713.88C1582.69 710.424 1581.35 706.563 1581.35 702.296C1581.35 696.92 1583.08 692.632 1586.53 689.432C1590.03 686.189 1594.38 684.568 1599.59 684.568C1605.52 684.568 1609.87 686.659 1612.65 690.84C1614.1 693.059 1614.82 695.491 1614.82 698.136ZM1601.32 699.992C1602.94 699.992 1603.75 699.309 1603.75 697.944C1603.75 696.963 1603.37 696.173 1602.6 695.576C1601.87 694.979 1600.81 694.68 1599.4 694.68C1598.03 694.68 1596.67 695.256 1595.3 696.408C1593.94 697.517 1593.25 698.712 1593.25 699.992H1601.32ZM1637.75 685.272C1642.02 685.272 1645.56 686.915 1648.37 690.2C1651.23 693.443 1652.66 697.411 1652.66 702.104V713.368C1652.66 714.349 1652.62 715.096 1652.53 715.608C1652.49 716.077 1652.32 716.611 1652.02 717.208C1651.42 718.36 1649.76 718.936 1647.03 718.936C1644 718.936 1642.25 718.147 1641.78 716.568C1641.53 715.843 1641.4 714.755 1641.4 713.304V702.04C1641.4 700.291 1640.89 698.925 1639.86 697.944C1638.88 696.963 1637.54 696.472 1635.83 696.472C1634.17 696.472 1632.8 696.984 1631.73 698.008C1630.71 699.032 1630.2 700.376 1630.2 702.04V713.368C1630.2 714.349 1630.15 715.096 1630.07 715.608C1630.03 716.077 1629.83 716.611 1629.49 717.208C1628.94 718.36 1627.3 718.936 1624.57 718.936C1621.88 718.936 1620.23 718.36 1619.64 717.208C1619.34 716.568 1619.15 716.013 1619.06 715.544C1619.02 715.032 1619 714.285 1619 713.304V690.648C1619 689.709 1619.02 689.005 1619.06 688.536C1619.15 688.024 1619.36 687.469 1619.7 686.872C1620.3 685.805 1621.94 685.272 1624.63 685.272C1627.23 685.272 1628.83 685.763 1629.43 686.744C1629.86 687.469 1630.07 688.344 1630.07 689.368C1630.24 689.069 1630.62 688.643 1631.22 688.088C1631.82 687.533 1632.39 687.085 1632.95 686.744C1634.4 685.763 1636 685.272 1637.75 685.272ZM1672.79 718.872C1668.48 718.872 1664.89 717.251 1662.03 714.008C1659.22 710.723 1657.81 706.733 1657.81 702.04V690.84C1657.81 689.816 1657.83 689.069 1657.87 688.6C1657.96 688.131 1658.15 687.576 1658.45 686.936C1659.05 685.784 1660.71 685.208 1663.44 685.208C1666.43 685.208 1668.18 686.019 1668.69 687.64C1668.95 688.323 1669.07 689.411 1669.07 690.904V702.104C1669.07 703.853 1669.56 705.219 1670.55 706.2C1671.57 707.181 1672.91 707.672 1674.58 707.672C1676.28 707.672 1677.65 707.16 1678.67 706.136C1679.74 705.112 1680.27 703.768 1680.27 702.104V690.776C1680.27 689.795 1680.3 689.069 1680.34 688.6C1680.42 688.088 1680.64 687.512 1680.98 686.872C1681.53 685.763 1683.18 685.208 1685.91 685.208C1688.59 685.208 1690.24 685.784 1690.83 686.936C1691.13 687.576 1691.3 688.152 1691.35 688.664C1691.43 689.133 1691.47 689.859 1691.47 690.84V713.496C1691.47 714.435 1691.43 715.16 1691.35 715.672C1691.3 716.141 1691.11 716.675 1690.77 717.272C1690.13 718.381 1688.49 718.936 1685.84 718.936C1683.24 718.936 1681.64 718.424 1681.04 717.4C1680.62 716.675 1680.4 715.8 1680.4 714.776C1680.23 715.075 1679.85 715.501 1679.25 716.056C1678.65 716.611 1678.08 717.08 1677.52 717.464C1676.07 718.403 1674.49 718.872 1672.79 718.872ZM1729.13 698.136C1729.13 700.739 1728.47 702.68 1727.15 703.96C1725.87 705.197 1724.44 705.816 1722.86 705.816H1707.69C1707.69 707.011 1708.4 708.013 1709.81 708.824C1711.21 709.635 1712.62 710.04 1714.03 710.04C1716.51 710.04 1718.45 709.784 1719.85 709.272L1720.56 709.016C1721.58 708.547 1722.44 708.312 1723.12 708.312C1724.48 708.312 1725.66 709.272 1726.64 711.192C1727.19 712.344 1727.47 713.325 1727.47 714.136C1727.47 717.933 1722.93 719.832 1713.84 719.832C1710.68 719.832 1707.87 719.299 1705.39 718.232C1702.96 717.123 1701.06 715.672 1699.69 713.88C1697.01 710.424 1695.66 706.563 1695.66 702.296C1695.66 696.92 1697.39 692.632 1700.85 689.432C1704.35 686.189 1708.7 684.568 1713.9 684.568C1719.83 684.568 1724.19 686.659 1726.96 690.84C1728.41 693.059 1729.13 695.491 1729.13 698.136ZM1715.63 699.992C1717.25 699.992 1718.06 699.309 1718.06 697.944C1718.06 696.963 1717.68 696.173 1716.91 695.576C1716.19 694.979 1715.12 694.68 1713.71 694.68C1712.35 694.68 1710.98 695.256 1709.61 696.408C1708.25 697.517 1707.57 698.712 1707.57 699.992H1715.63Z" fill="black"/>
<path d="M521.184 681.56C522.293 683.821 522.848 686.339 522.848 689.112C522.848 691.885 522.293 694.403 521.184 696.664C520.075 698.883 518.645 700.653 516.896 701.976C513.355 704.707 509.685 706.072 505.888 706.072H497.888V713.304C497.888 714.285 497.845 715.032 497.76 715.544C497.717 716.013 497.525 716.568 497.184 717.208C496.587 718.36 494.923 718.936 492.192 718.936C489.205 718.936 487.456 718.147 486.944 716.568C486.688 715.843 486.56 714.733 486.56 713.24V677.72C486.56 676.739 486.581 676.013 486.624 675.544C486.709 675.032 486.923 674.456 487.264 673.816C487.861 672.664 489.525 672.088 492.256 672.088H505.952C509.707 672.088 513.355 673.453 516.896 676.184C518.645 677.507 520.075 679.299 521.184 681.56ZM505.952 694.744C507.232 694.744 508.491 694.275 509.728 693.336C510.965 692.397 511.584 690.989 511.584 689.112C511.584 687.235 510.965 685.827 509.728 684.888C508.491 683.907 507.211 683.416 505.888 683.416H497.888V694.744H505.952ZM549.91 685.656C550.72 685.912 551.382 686.36 551.894 687C552.448 687.597 552.726 688.579 552.726 689.944C552.726 691.309 552.32 692.803 551.51 694.424C550.699 696.045 549.526 696.856 547.99 696.856C547.222 696.856 546.475 696.685 545.75 696.344C545.067 696.003 544.15 695.832 542.998 695.832C541.846 695.832 540.758 696.237 539.734 697.048C538.752 697.859 538.262 698.84 538.262 699.992V713.432C538.262 714.413 538.219 715.16 538.134 715.672C538.091 716.141 537.899 716.696 537.558 717.336C536.918 718.445 535.254 719 532.566 719C530.518 719 529.046 718.637 528.15 717.912C527.467 717.315 527.083 716.397 526.998 715.16C526.998 714.733 526.998 714.115 526.998 713.304V690.84C526.998 689.859 527.019 689.133 527.062 688.664C527.147 688.152 527.339 687.597 527.638 687C528.235 685.848 529.899 685.272 532.63 685.272C535.19 685.272 536.79 685.763 537.43 686.744C537.899 687.427 538.134 688.131 538.134 688.856C538.347 688.557 538.646 688.195 539.03 687.768C539.456 687.341 540.331 686.765 541.654 686.04C542.976 685.315 544.128 684.952 545.11 684.952C546.134 684.952 546.987 685.016 547.67 685.144C548.352 685.229 549.099 685.4 549.91 685.656ZM553.35 702.168C553.35 697.048 555.142 692.824 558.726 689.496C562.31 686.168 566.406 684.504 571.014 684.504C575.622 684.504 579.697 686.168 583.238 689.496C586.779 692.781 588.55 696.984 588.55 702.104C588.55 705.645 587.633 708.803 585.798 711.576C583.963 714.307 581.723 716.333 579.078 717.656C576.475 718.936 573.766 719.576 570.95 719.576C568.134 719.576 565.403 718.893 562.758 717.528C560.113 716.12 557.873 714.072 556.038 711.384C554.246 708.653 553.35 705.581 553.35 702.168ZM566.726 706.776C568.091 707.8 569.478 708.312 570.886 708.312C572.294 708.312 573.702 707.779 575.11 706.712C576.518 705.645 577.222 704.067 577.222 701.976C577.222 699.885 576.561 698.328 575.238 697.304C573.915 696.28 572.486 695.768 570.95 695.768C569.414 695.768 567.985 696.301 566.662 697.368C565.339 698.435 564.678 700.013 564.678 702.104C564.678 704.152 565.361 705.709 566.726 706.776ZM615.277 671.256C615.618 670.616 616.194 670.168 617.005 669.912C617.816 669.656 618.882 669.528 620.205 669.528C621.57 669.528 622.658 669.656 623.469 669.912C624.28 670.168 624.834 670.616 625.133 671.256C625.474 671.896 625.666 672.472 625.709 672.984C625.794 673.453 625.837 674.179 625.837 675.16V713.368C625.837 714.349 625.794 715.096 625.709 715.608C625.666 716.077 625.474 716.611 625.133 717.208C624.493 718.36 622.68 718.936 619.693 718.936C616.749 718.936 615.106 717.891 614.765 715.8C612.973 717.848 610.477 718.872 607.277 718.872C603.437 718.872 599.938 717.208 596.781 713.88C593.624 710.509 592.045 706.605 592.045 702.168C592.045 697.688 593.624 693.763 596.781 690.392C599.981 687.021 603.48 685.336 607.277 685.336C610.434 685.336 612.888 686.403 614.637 688.536V675.096C614.637 674.115 614.658 673.389 614.701 672.92C614.786 672.408 614.978 671.853 615.277 671.256ZM604.909 706.008C606.018 707.16 607.362 707.736 608.941 707.736C610.52 707.736 611.821 707.16 612.845 706.008C613.912 704.856 614.445 703.597 614.445 702.232C614.445 700.824 613.933 699.523 612.909 698.328C611.928 697.133 610.584 696.536 608.877 696.536C607.17 696.536 605.805 697.133 604.781 698.328C603.757 699.48 603.245 700.76 603.245 702.168C603.245 703.576 603.8 704.856 604.909 706.008ZM645.911 718.872C641.602 718.872 638.018 717.251 635.159 714.008C632.343 710.723 630.935 706.733 630.935 702.04V690.84C630.935 689.816 630.956 689.069 630.999 688.6C631.084 688.131 631.276 687.576 631.575 686.936C632.172 685.784 633.836 685.208 636.567 685.208C639.554 685.208 641.303 686.019 641.815 687.64C642.071 688.323 642.199 689.411 642.199 690.904V702.104C642.199 703.853 642.69 705.219 643.671 706.2C644.695 707.181 646.039 707.672 647.703 707.672C649.41 707.672 650.775 707.16 651.799 706.136C652.866 705.112 653.399 703.768 653.399 702.104V690.776C653.399 689.795 653.42 689.069 653.463 688.6C653.548 688.088 653.762 687.512 654.103 686.872C654.658 685.763 656.3 685.208 659.031 685.208C661.719 685.208 663.362 685.784 663.959 686.936C664.258 687.576 664.428 688.152 664.471 688.664C664.556 689.133 664.599 689.859 664.599 690.84V713.496C664.599 714.435 664.556 715.16 664.471 715.672C664.428 716.141 664.236 716.675 663.895 717.272C663.255 718.381 661.612 718.936 658.967 718.936C656.364 718.936 654.764 718.424 654.167 717.4C653.74 716.675 653.527 715.8 653.527 714.776C653.356 715.075 652.972 715.501 652.375 716.056C651.778 716.611 651.202 717.08 650.647 717.464C649.196 718.403 647.618 718.872 645.911 718.872ZM680.308 702.168C680.308 703.96 680.905 705.368 682.1 706.392C683.294 707.373 684.553 707.864 685.876 707.864C687.241 707.864 688.5 707.48 689.652 706.712C690.846 705.901 691.806 705.496 692.532 705.496C693.812 705.496 695.369 706.627 697.204 708.888C698.185 710.125 698.676 711.235 698.676 712.216C698.676 713.837 697.502 715.352 695.156 716.76C692.724 718.467 689.737 719.32 686.196 719.32C682.228 719.32 678.409 717.891 674.74 715.032C672.99 713.667 671.561 711.853 670.452 709.592C669.342 707.288 668.788 704.771 668.788 702.04C668.788 699.267 669.342 696.771 670.452 694.552C671.561 692.291 672.99 690.477 674.74 689.112C678.281 686.296 682.057 684.888 686.068 684.888C687.689 684.888 689.268 685.123 690.804 685.592C692.34 686.019 693.47 686.445 694.196 686.872L695.22 687.512C695.988 688.024 696.585 688.429 697.012 688.728C698.121 689.581 698.676 690.563 698.676 691.672C698.676 692.739 698.228 693.955 697.332 695.32C695.796 697.667 694.324 698.84 692.916 698.84C692.105 698.84 690.953 698.371 689.46 697.432C688.692 696.707 687.582 696.344 686.132 696.344C684.724 696.344 683.401 696.856 682.164 697.88C680.926 698.904 680.308 700.333 680.308 702.168ZM721.769 696.6L717.609 696.344V705.176C717.609 706.328 717.78 707.16 718.121 707.672C718.505 708.184 719.188 708.44 720.169 708.44C721.193 708.44 721.961 708.483 722.473 708.568C723.028 708.611 723.604 708.803 724.201 709.144C725.182 709.699 725.673 711.128 725.673 713.432C725.673 716.12 725.076 717.763 723.881 718.36C723.241 718.659 722.665 718.851 722.153 718.936C721.684 718.979 720.98 719 720.041 719C715.604 719 712.233 717.997 709.929 715.992C707.625 713.987 706.473 710.595 706.473 705.816V696.344C705.662 696.472 704.788 696.536 703.849 696.536C702.91 696.536 702.121 696.173 701.481 695.448C700.884 694.723 700.585 693.485 700.585 691.736C700.585 689.987 700.692 688.728 700.905 687.96C701.118 687.149 701.417 686.573 701.801 686.232C702.484 685.677 703.337 685.4 704.361 685.4L706.473 685.656V679.064C706.473 678.083 706.494 677.357 706.537 676.888C706.622 676.419 706.836 675.907 707.177 675.352C707.732 674.285 709.374 673.752 712.105 673.752C715.006 673.752 716.734 674.541 717.289 676.12C717.502 676.803 717.609 677.891 717.609 679.384V685.656C719.486 685.485 720.894 685.4 721.833 685.4C722.814 685.4 723.54 685.443 724.009 685.528C724.521 685.571 725.097 685.763 725.737 686.104C726.846 686.659 727.401 688.301 727.401 691.032C727.401 693.72 726.825 695.363 725.673 695.96C725.033 696.259 724.457 696.451 723.945 696.536C723.476 696.579 722.75 696.6 721.769 696.6ZM731.191 715.992C730.38 715.48 729.975 714.669 729.975 713.56C729.975 712.451 730.786 710.765 732.407 708.504C732.876 707.779 733.623 707.416 734.647 707.416C735.714 707.416 737.143 707.949 738.935 709.016C740.727 710.04 742.348 710.552 743.799 710.552C746.402 710.552 747.703 710.04 747.703 709.016C747.703 708.205 746.274 707.608 743.415 707.224C740.727 706.84 738.06 705.837 735.415 704.216C734.178 703.448 733.154 702.253 732.343 700.632C731.532 698.968 731.127 697.005 731.127 694.744C731.127 688.003 735.756 684.632 745.015 684.632C748.044 684.632 751.159 685.357 754.359 686.808C755.852 687.491 756.599 688.344 756.599 689.368C756.599 690.392 756.13 691.651 755.191 693.144C754.252 694.637 753.292 695.384 752.311 695.384C751.799 695.384 750.839 695.064 749.431 694.424C748.066 693.784 746.572 693.464 744.951 693.464C742.434 693.464 741.175 693.933 741.175 694.872C741.175 696.152 742.626 696.984 745.527 697.368C748.343 697.667 751.074 698.477 753.719 699.8C754.956 700.397 755.98 701.443 756.791 702.936C757.644 704.387 758.071 706.221 758.071 708.44C758.071 710.659 757.644 712.557 756.791 714.136C755.98 715.672 754.828 716.824 753.335 717.592C750.604 718.915 747.17 719.576 743.031 719.576C738.935 719.576 734.988 718.381 731.191 715.992Z" fill="black"/>
<path d="M490.904 803.376C493.123 801.157 495.512 800.048 498.072 800.048C500.717 800.048 502.765 800.261 504.216 800.688C505.667 801.115 506.776 801.627 507.544 802.224C508.312 802.736 508.909 803.632 509.336 804.912C509.763 806.363 509.976 808.624 509.976 811.696V882.992C509.976 884.955 509.891 886.448 509.72 887.472C509.635 888.411 509.251 889.52 508.568 890.8C507.373 893.104 504.045 894.256 498.584 894.256C493.293 894.256 490.008 893.147 488.728 890.928C488.045 889.648 487.619 888.496 487.448 887.472C487.363 886.363 487.32 884.784 487.32 882.736V837.04L485.656 838.576C482.157 841.221 479.171 842.544 476.696 842.544C474.221 842.544 471.619 841.051 468.888 838.064C466.243 835.077 464.92 832.432 464.92 830.128C464.92 827.824 466.456 825.307 469.528 822.576L490.52 803.632L490.904 803.376ZM528.053 811.056C530.528 807.557 533.984 804.656 538.421 802.352C542.944 799.963 548.149 798.768 554.037 798.768C559.925 798.768 565.045 799.92 569.397 802.224C573.834 804.528 577.29 807.387 579.765 810.8C582.325 814.213 584.373 818.224 585.909 822.832C588.469 830.512 589.749 838.661 589.749 847.28C589.749 862.725 586.421 874.971 579.765 884.016C577.29 887.429 573.834 890.245 569.397 892.464C565.045 894.683 559.968 895.792 554.165 895.792C548.362 895.792 543.2 894.683 538.677 892.464C534.24 890.16 530.741 887.344 528.181 884.016C525.706 880.688 523.658 876.72 522.037 872.112C519.562 864.773 518.325 856.453 518.325 847.152C518.325 838.619 519.306 831.323 521.269 825.264C523.317 819.205 525.578 814.469 528.053 811.056ZM553.909 873.008C562.698 873.008 567.093 864.645 567.093 847.92V847.152C567.093 830 562.741 821.424 554.037 821.424C545.333 821.424 540.981 830.043 540.981 847.28C540.981 864.432 545.29 873.008 553.909 873.008ZM620.904 803.376C623.123 801.157 625.512 800.048 628.072 800.048C630.717 800.048 632.765 800.261 634.216 800.688C635.667 801.115 636.776 801.627 637.544 802.224C638.312 802.736 638.909 803.632 639.336 804.912C639.763 806.363 639.976 808.624 639.976 811.696V882.992C639.976 884.955 639.891 886.448 639.72 887.472C639.635 888.411 639.251 889.52 638.568 890.8C637.373 893.104 634.045 894.256 628.584 894.256C623.293 894.256 620.008 893.147 618.728 890.928C618.045 889.648 617.619 888.496 617.448 887.472C617.363 886.363 617.32 884.784 617.32 882.736V837.04L615.656 838.576C612.157 841.221 609.171 842.544 606.696 842.544C604.221 842.544 601.619 841.051 598.888 838.064C596.243 835.077 594.92 832.432 594.92 830.128C594.92 827.824 596.456 825.307 599.528 822.576L620.52 803.632L620.904 803.376ZM670.085 872.88C671.536 874.331 672.261 877.317 672.261 881.84V882.352C672.261 884.4 672.176 885.936 672.005 886.96C671.92 887.899 671.493 889.051 670.725 890.416C669.445 892.891 666.202 894.128 660.997 894.128C655.877 894.128 652.464 893.317 650.757 891.696C649.136 890.075 648.325 887.003 648.325 882.48V881.968C648.325 880.005 648.368 878.512 648.453 877.488C648.624 876.464 649.05 875.312 649.733 874.032C651.013 871.472 654.213 870.192 659.333 870.192C664.538 870.192 668.122 871.088 670.085 872.88ZM695.468 799.92L714.924 800.048H726.956C729.004 800.048 730.497 800.133 731.436 800.304C732.375 800.389 733.484 800.773 734.764 801.456C737.068 802.651 738.22 806.064 738.22 811.696C738.22 816.816 737.153 819.931 735.02 821.04C733.825 821.723 732.759 822.149 731.82 822.32C730.967 822.405 729.601 822.448 727.724 822.448H705.324C705.153 823.472 704.727 826.715 704.044 832.176C704.983 832.005 706.476 831.92 708.524 831.92C716.631 831.92 723.927 834.992 730.412 841.136C736.897 847.195 740.14 854.661 740.14 863.536C740.14 872.325 737.068 879.92 730.924 886.32C724.78 892.635 717.143 895.792 708.012 895.792C700.076 895.792 692.908 893.787 686.508 889.776C685.057 888.837 683.991 888.027 683.308 887.344L682.284 886.448C679.041 883.632 677.42 881.072 677.42 878.768C677.42 876.464 678.999 873.691 682.156 870.448C684.716 867.632 687.191 866.224 689.58 866.224C691.969 866.224 694.828 867.589 698.156 870.32C699.692 872.112 702.337 873.008 706.092 873.008C709.932 873.008 712.748 872.197 714.54 870.576C716.417 868.955 717.356 866.736 717.356 863.92C717.356 861.019 716.332 858.757 714.284 857.136C712.321 855.429 710.06 854.576 707.5 854.576C704.94 854.576 702.892 855.344 701.356 856.88C699.052 858.843 696.705 859.824 694.316 859.824C692.012 859.824 689.324 859.013 686.252 857.392C683.265 855.771 681.303 854.491 680.364 853.552C679.425 852.528 678.956 851.461 678.956 850.352C678.956 849.243 679.809 842.373 681.516 829.744C683.223 817.115 684.119 810.544 684.204 810.032C684.289 809.52 684.588 808.624 685.1 807.344C685.612 806.064 686.209 804.912 686.892 803.888C687.66 802.864 688.769 801.968 690.22 801.2C691.756 800.347 693.505 799.92 695.468 799.92ZM788.175 860.208L805.199 874.288C807.332 876.08 808.655 877.445 809.167 878.384C809.764 879.323 810.063 880.219 810.063 881.072C810.063 883.12 808.74 885.893 806.095 889.392C803.194 892.976 800.634 894.768 798.415 894.768C796.538 894.768 793.935 893.531 790.607 891.056L789.327 890.16C787.364 888.539 784.335 885.723 780.239 881.712C776.143 877.616 773.028 874.715 770.895 873.008V882.864C770.895 884.827 770.81 886.32 770.639 887.344C770.554 888.283 770.17 889.392 769.487 890.672C768.378 892.891 765.092 894 759.631 894C754.255 894 750.97 892.848 749.775 890.544C749.178 889.264 748.794 888.155 748.623 887.216C748.538 886.192 748.495 884.699 748.495 882.736V806.064C748.495 804.101 748.538 802.651 748.623 801.712C748.794 800.688 749.178 799.536 749.775 798.256C750.97 795.952 754.298 794.8 759.759 794.8C763.855 794.8 766.756 795.525 768.463 796.976C769.914 798.171 770.682 800.048 770.767 802.608C770.852 803.376 770.895 804.571 770.895 806.192V846.768C772.431 845.488 774.735 843.312 777.807 840.24C780.964 837.168 783.311 834.992 784.847 833.712L786.383 832.688C789.37 830.384 791.93 829.232 794.063 829.232C796.196 829.232 798.628 830.981 801.359 834.48C804.175 837.893 805.583 840.581 805.583 842.544C805.583 844.507 804.004 846.811 800.847 849.456L788.175 860.208Z" fill="black"/>
<path d="M1438.6 862.896C1438.6 869.552 1436.68 874.885 1432.84 878.896C1429 882.907 1424.35 885.552 1418.89 886.832V895.024C1418.89 898.011 1418.59 900.101 1417.99 901.296C1417.48 902.491 1416.67 903.301 1415.56 903.728C1414.54 904.155 1413.13 904.368 1411.34 904.368C1409.54 904.368 1408.09 904.155 1406.98 903.728C1405.96 903.301 1405.23 902.533 1404.81 901.424C1404.21 899.973 1403.91 897.797 1403.91 894.896V886.96C1400.41 886.192 1397.26 884.912 1394.44 883.12C1391.62 881.328 1389.66 879.749 1388.55 878.384L1386.89 876.208C1385.1 873.904 1384.2 871.899 1384.2 870.192C1384.2 868.485 1385.65 866.224 1388.55 863.408C1390.26 861.787 1392.05 860.976 1393.93 860.976C1395.89 860.976 1398.58 862.683 1401.99 866.096C1404.64 869.339 1407.62 870.96 1410.95 870.96C1417.27 870.96 1420.42 868.357 1420.42 863.152C1420.42 861.275 1419.23 859.824 1416.84 858.8C1414.45 857.776 1411.55 856.88 1408.14 856.112C1404.72 855.259 1401.31 854.149 1397.9 852.784C1394.48 851.419 1391.58 849.072 1389.19 845.744C1386.8 842.416 1385.61 838.192 1385.61 833.072C1385.61 827.952 1387.23 823.344 1390.47 819.248C1393.71 815.152 1398.19 812.507 1403.91 811.312V804.144C1403.91 801.243 1404.17 799.152 1404.68 797.872C1405.53 795.824 1407.79 794.8 1411.46 794.8C1413.77 794.8 1415.47 795.312 1416.58 796.336C1417.78 797.275 1418.46 798.299 1418.63 799.408C1418.8 800.517 1418.89 802.139 1418.89 804.272V811.44C1421.28 811.952 1423.45 812.677 1425.42 813.616C1427.38 814.555 1428.74 815.323 1429.51 815.92L1430.66 816.944L1431.18 817.328C1433.31 819.291 1434.38 820.912 1434.38 822.192C1434.38 823.472 1433.35 825.605 1431.3 828.592C1429.34 831.579 1427.17 833.072 1424.78 833.072C1423.24 833.072 1421.92 832.688 1420.81 831.92C1419.78 831.152 1418.97 830.512 1418.38 830C1417.78 829.488 1417.22 829.061 1416.71 828.72C1415.26 827.781 1413.43 827.312 1411.21 827.312C1408.99 827.312 1407.15 827.867 1405.7 828.976C1404.25 830 1403.53 831.451 1403.53 833.328C1403.53 835.205 1404.38 836.741 1406.09 837.936C1407.88 839.045 1410.06 839.813 1412.62 840.24C1415.18 840.581 1417.99 841.221 1421.06 842.16C1424.14 843.013 1426.95 844.037 1429.51 845.232C1432.07 846.427 1434.21 848.56 1435.91 851.632C1437.7 854.619 1438.6 858.373 1438.6 862.896ZM1513.05 863.92C1513.05 873.477 1509.55 881.2 1502.55 887.088C1495.64 892.891 1487.79 895.792 1479 895.792C1470.21 895.792 1462.32 892.891 1455.32 887.088C1448.41 881.285 1444.95 873.563 1444.95 863.92C1444.95 860.336 1445.8 856.88 1447.51 853.552C1449.3 850.139 1451.05 847.664 1452.76 846.128L1455.45 843.696C1454.85 843.184 1454.12 842.501 1453.27 841.648C1452.42 840.795 1451.26 838.96 1449.81 836.144C1448.45 833.243 1447.77 830.256 1447.77 827.184C1447.77 818.821 1450.92 811.909 1457.24 806.448C1463.55 800.987 1470.89 798.256 1479.25 798.256C1487.62 798.256 1494.87 801.029 1501.01 806.576C1507.16 812.123 1510.23 819.205 1510.23 827.824C1510.23 830.384 1509.59 832.987 1508.31 835.632C1507.12 838.277 1505.88 840.283 1504.6 841.648L1502.68 843.696C1503.45 844.293 1504.38 845.189 1505.49 846.384C1506.69 847.493 1508.22 849.797 1510.1 853.296C1512.06 856.795 1513.05 860.336 1513.05 863.92ZM1487.57 827.056C1487.57 825.349 1486.85 823.771 1485.4 822.32C1483.95 820.784 1481.77 820.016 1478.87 820.016C1476.05 820.016 1473.96 820.741 1472.6 822.192C1471.23 823.643 1470.55 825.264 1470.55 827.056C1470.55 828.763 1471.28 830.384 1472.73 831.92C1474.26 833.456 1476.4 834.224 1479.13 834.224C1481.94 834.224 1484.03 833.456 1485.4 831.92C1486.85 830.384 1487.57 828.763 1487.57 827.056ZM1470.55 871.088C1472.51 873.136 1475.37 874.16 1479.13 874.16C1482.88 874.16 1485.7 873.136 1487.57 871.088C1489.45 869.04 1490.39 866.864 1490.39 864.56C1490.39 862.171 1489.41 859.952 1487.45 857.904C1485.57 855.856 1482.75 854.832 1479 854.832C1475.33 854.832 1472.51 855.856 1470.55 857.904C1468.59 859.867 1467.61 862.043 1467.61 864.432C1467.61 866.821 1468.59 869.04 1470.55 871.088ZM1587.55 863.92C1587.55 873.477 1584.05 881.2 1577.05 887.088C1570.14 892.891 1562.29 895.792 1553.5 895.792C1544.71 895.792 1536.82 892.891 1529.82 887.088C1522.91 881.285 1519.45 873.563 1519.45 863.92C1519.45 860.336 1520.3 856.88 1522.01 853.552C1523.8 850.139 1525.55 847.664 1527.26 846.128L1529.95 843.696C1529.35 843.184 1528.62 842.501 1527.77 841.648C1526.92 840.795 1525.76 838.96 1524.31 836.144C1522.95 833.243 1522.27 830.256 1522.27 827.184C1522.27 818.821 1525.42 811.909 1531.74 806.448C1538.05 800.987 1545.39 798.256 1553.75 798.256C1562.12 798.256 1569.37 801.029 1575.51 806.576C1581.66 812.123 1584.73 819.205 1584.73 827.824C1584.73 830.384 1584.09 832.987 1582.81 835.632C1581.62 838.277 1580.38 840.283 1579.1 841.648L1577.18 843.696C1577.95 844.293 1578.88 845.189 1579.99 846.384C1581.19 847.493 1582.72 849.797 1584.6 853.296C1586.56 856.795 1587.55 860.336 1587.55 863.92ZM1562.07 827.056C1562.07 825.349 1561.35 823.771 1559.9 822.32C1558.45 820.784 1556.27 820.016 1553.37 820.016C1550.55 820.016 1548.46 820.741 1547.1 822.192C1545.73 823.643 1545.05 825.264 1545.05 827.056C1545.05 828.763 1545.78 830.384 1547.23 831.92C1548.76 833.456 1550.9 834.224 1553.63 834.224C1556.44 834.224 1558.53 833.456 1559.9 831.92C1561.35 830.384 1562.07 828.763 1562.07 827.056ZM1545.05 871.088C1547.01 873.136 1549.87 874.16 1553.63 874.16C1557.38 874.16 1560.2 873.136 1562.07 871.088C1563.95 869.04 1564.89 866.864 1564.89 864.56C1564.89 862.171 1563.91 859.952 1561.95 857.904C1560.07 855.856 1557.25 854.832 1553.5 854.832C1549.83 854.832 1547.01 855.856 1545.05 857.904C1543.09 859.867 1542.11 862.043 1542.11 864.432C1542.11 866.821 1543.09 869.04 1545.05 871.088ZM1662.05 863.92C1662.05 873.477 1658.55 881.2 1651.55 887.088C1644.64 892.891 1636.79 895.792 1628 895.792C1619.21 895.792 1611.32 892.891 1604.32 887.088C1597.41 881.285 1593.95 873.563 1593.95 863.92C1593.95 860.336 1594.8 856.88 1596.51 853.552C1598.3 850.139 1600.05 847.664 1601.76 846.128L1604.45 843.696C1603.85 843.184 1603.12 842.501 1602.27 841.648C1601.42 840.795 1600.26 838.96 1598.81 836.144C1597.45 833.243 1596.77 830.256 1596.77 827.184C1596.77 818.821 1599.92 811.909 1606.24 806.448C1612.55 800.987 1619.89 798.256 1628.25 798.256C1636.62 798.256 1643.87 801.029 1650.01 806.576C1656.16 812.123 1659.23 819.205 1659.23 827.824C1659.23 830.384 1658.59 832.987 1657.31 835.632C1656.12 838.277 1654.88 840.283 1653.6 841.648L1651.68 843.696C1652.45 844.293 1653.38 845.189 1654.49 846.384C1655.69 847.493 1657.22 849.797 1659.1 853.296C1661.06 856.795 1662.05 860.336 1662.05 863.92ZM1636.57 827.056C1636.57 825.349 1635.85 823.771 1634.4 822.32C1632.95 820.784 1630.77 820.016 1627.87 820.016C1625.05 820.016 1622.96 820.741 1621.6 822.192C1620.23 823.643 1619.55 825.264 1619.55 827.056C1619.55 828.763 1620.28 830.384 1621.73 831.92C1623.26 833.456 1625.4 834.224 1628.13 834.224C1630.94 834.224 1633.03 833.456 1634.4 831.92C1635.85 830.384 1636.57 828.763 1636.57 827.056ZM1619.55 871.088C1621.51 873.136 1624.37 874.16 1628.13 874.16C1631.88 874.16 1634.7 873.136 1636.57 871.088C1638.45 869.04 1639.39 866.864 1639.39 864.56C1639.39 862.171 1638.41 859.952 1636.45 857.904C1634.57 855.856 1631.75 854.832 1628 854.832C1624.33 854.832 1621.51 855.856 1619.55 857.904C1617.59 859.867 1616.61 862.043 1616.61 864.432C1616.61 866.821 1617.59 869.04 1619.55 871.088ZM1736.55 863.92C1736.55 873.477 1733.05 881.2 1726.05 887.088C1719.14 892.891 1711.29 895.792 1702.5 895.792C1693.71 895.792 1685.82 892.891 1678.82 887.088C1671.91 881.285 1668.45 873.563 1668.45 863.92C1668.45 860.336 1669.3 856.88 1671.01 853.552C1672.8 850.139 1674.55 847.664 1676.26 846.128L1678.95 843.696C1678.35 843.184 1677.62 842.501 1676.77 841.648C1675.92 840.795 1674.76 838.96 1673.31 836.144C1671.95 833.243 1671.27 830.256 1671.27 827.184C1671.27 818.821 1674.42 811.909 1680.74 806.448C1687.05 800.987 1694.39 798.256 1702.75 798.256C1711.12 798.256 1718.37 801.029 1724.51 806.576C1730.66 812.123 1733.73 819.205 1733.73 827.824C1733.73 830.384 1733.09 832.987 1731.81 835.632C1730.62 838.277 1729.38 840.283 1728.1 841.648L1726.18 843.696C1726.95 844.293 1727.88 845.189 1728.99 846.384C1730.19 847.493 1731.72 849.797 1733.6 853.296C1735.56 856.795 1736.55 860.336 1736.55 863.92ZM1711.07 827.056C1711.07 825.349 1710.35 823.771 1708.9 822.32C1707.45 820.784 1705.27 820.016 1702.37 820.016C1699.55 820.016 1697.46 820.741 1696.1 822.192C1694.73 823.643 1694.05 825.264 1694.05 827.056C1694.05 828.763 1694.78 830.384 1696.23 831.92C1697.76 833.456 1699.9 834.224 1702.63 834.224C1705.44 834.224 1707.53 833.456 1708.9 831.92C1710.35 830.384 1711.07 828.763 1711.07 827.056ZM1694.05 871.088C1696.01 873.136 1698.87 874.16 1702.63 874.16C1706.38 874.16 1709.2 873.136 1711.07 871.088C1712.95 869.04 1713.89 866.864 1713.89 864.56C1713.89 862.171 1712.91 859.952 1710.95 857.904C1709.07 855.856 1706.25 854.832 1702.5 854.832C1698.83 854.832 1696.01 855.856 1694.05 857.904C1692.09 859.867 1691.11 862.043 1691.11 864.432C1691.11 866.821 1692.09 869.04 1694.05 871.088Z" fill="black"/>
<defs>
<filter id="filter0_di_17_13" x="0" y="0" width="861" height="464" filterUnits="userSpaceOnUse" color-interpolation-filters="sRGB">
<feFlood flood-opacity="0" result="BackgroundImageFix"/>
<feColorMatrix in="SourceAlpha" type="matrix" values="0 0 0 0 0 0 0 0 0 0 0 0 0 0 0 0 0 0 127 0" result="hardAlpha"/>
<feOffset dy="4"/>
<feGaussianBlur stdDeviation="2"/>
<feComposite in2="hardAlpha" operator="out"/>
<feColorMatrix type="matrix" values="0 0 0 0 0 0 0 0 0 0 0 0 0 0 0 0 0 0 0.25 0"/>
<feBlend mode="normal" in2="BackgroundImageFix" result="effect1_dropShadow_17_13"/>
<feBlend mode="normal" in="SourceGraphic" in2="effect1_dropShadow_17_13" result="shape"/>
<feColorMatrix in="SourceAlpha" type="matrix" values="0 0 0 0 0 0 0 0 0 0 0 0 0 0 0 0 0 0 127 0" result="hardAlpha"/>
<feOffset dy="1"/>
<feGaussianBlur stdDeviation="1"/>
<feComposite in2="hardAlpha" operator="arithmetic" k2="-1" k3="1"/>
<feColorMatrix type="matrix" values="0 0 0 0 0 0 0 0 0 0 0 0 0 0 0 0 0 0 0.25 0"/>
<feBlend mode="normal" in2="shape" result="effect2_innerShadow_17_13"/>
</filter>
<filter id="filter1_di_17_13" x="950" y="0" width="861" height="464" filterUnits="userSpaceOnUse" color-interpolation-filters="sRGB">
<feFlood flood-opacity="0" result="BackgroundImageFix"/>
<feColorMatrix in="SourceAlpha" type="matrix" values="0 0 0 0 0 0 0 0 0 0 0 0 0 0 0 0 0 0 127 0" result="hardAlpha"/>
<feOffset dy="4"/>
<feGaussianBlur stdDeviation="2"/>
<feComposite in2="hardAlpha" operator="out"/>
<feColorMatrix type="matrix" values="0 0 0 0 0 0 0 0 0 0 0 0 0 0 0 0 0 0 0.25 0"/>
<feBlend mode="normal" in2="BackgroundImageFix" result="effect1_dropShadow_17_13"/>
<feBlend mode="normal" in="SourceGraphic" in2="effect1_dropShadow_17_13" result="shape"/>
<feColorMatrix in="SourceAlpha" type="matrix" values="0 0 0 0 0 0 0 0 0 0 0 0 0 0 0 0 0 0 127 0" result="hardAlpha"/>
<feOffset dy="1"/>
<feGaussianBlur stdDeviation="1"/>
<feComposite in2="hardAlpha" operator="arithmetic" k2="-1" k3="1"/>
<feColorMatrix type="matrix" values="0 0 0 0 0 0 0 0 0 0 0 0 0 0 0 0 0 0 0.25 0"/>
<feBlend mode="normal" in2="shape" result="effect2_innerShadow_17_13"/>
</filter>
<filter id="filter2_di_17_13" x="950" y="563" width="861" height="464" filterUnits="userSpaceOnUse" color-interpolation-filters="sRGB">
<feFlood flood-opacity="0" result="BackgroundImageFix"/>
<feColorMatrix in="SourceAlpha" type="matrix" values="0 0 0 0 0 0 0 0 0 0 0 0 0 0 0 0 0 0 127 0" result="hardAlpha"/>
<feOffset dy="4"/>
<feGaussianBlur stdDeviation="2"/>
<feComposite in2="hardAlpha" operator="out"/>
<feColorMatrix type="matrix" values="0 0 0 0 0 0 0 0 0 0 0 0 0 0 0 0 0 0 0.25 0"/>
<feBlend mode="normal" in2="BackgroundImageFix" result="effect1_dropShadow_17_13"/>
<feBlend mode="normal" in="SourceGraphic" in2="effect1_dropShadow_17_13" result="shape"/>
<feColorMatrix in="SourceAlpha" type="matrix" values="0 0 0 0 0 0 0 0 0 0 0 0 0 0 0 0 0 0 127 0" result="hardAlpha"/>
<feOffset dy="1"/>
<feGaussianBlur stdDeviation="1"/>
<feComposite in2="hardAlpha" operator="arithmetic" k2="-1" k3="1"/>
<feColorMatrix type="matrix" values="0 0 0 0 0 0 0 0 0 0 0 0 0 0 0 0 0 0 0.25 0"/>
<feBlend mode="normal" in2="shape" result="effect2_innerShadow_17_13"/>
</filter>
<filter id="filter3_di_17_13" x="0" y="563" width="861" height="464" filterUnits="userSpaceOnUse" color-interpolation-filters="sRGB">
<feFlood flood-opacity="0" result="BackgroundImageFix"/>
<feColorMatrix in="SourceAlpha" type="matrix" values="0 0 0 0 0 0 0 0 0 0 0 0 0 0 0 0 0 0 127 0" result="hardAlpha"/>
<feOffset dy="4"/>
<feGaussianBlur stdDeviation="2"/>
<feComposite in2="hardAlpha" operator="out"/>
<feColorMatrix type="matrix" values="0 0 0 0 0 0 0 0 0 0 0 0 0 0 0 0 0 0 0.25 0"/>
<feBlend mode="normal" in2="BackgroundImageFix" result="effect1_dropShadow_17_13"/>
<feBlend mode="normal" in="SourceGraphic" in2="effect1_dropShadow_17_13" result="shape"/>
<feColorMatrix in="SourceAlpha" type="matrix" values="0 0 0 0 0 0 0 0 0 0 0 0 0 0 0 0 0 0 127 0" result="hardAlpha"/>
<feOffset dy="1"/>
<feGaussianBlur stdDeviation="1"/>
<feComposite in2="hardAlpha" operator="arithmetic" k2="-1" k3="1"/>
<feColorMatrix type="matrix" values="0 0 0 0 0 0 0 0 0 0 0 0 0 0 0 0 0 0 0.25 0"/>
<feBlend mode="normal" in2="shape" result="effect2_innerShadow_17_13"/>
</filter>
<clipPath id="clip0_17_13">
<rect width="150" height="112.5" fill="white" transform="translate(1089 744)"/>
</clipPath>
</defs>
</svg>
